<svg width="40" height="40" viewBox="0 0 40 40" fill="none" xmlns="http://www.w3.org/2000/svg">
<g clip-path="url(#clip0_20_424)">
<path d="M23.7771 10.7591L5.22584 10.7561C4.61035 10.7552 3.95863 10.8356 3.96045 10.0286C3.96285 8.96966 4.27676 8.00506 5.03507 7.24637C5.98517 6.29577 7.01603 6.14673 8.28781 6.14687L13.0308 6.14437C13.0684 6.07449 13.0441 5.83939 13.0442 5.74964L13.0472 3.61349C13.0484 3.37668 13.0473 3.12518 13.1369 2.90173L13.1486 2.87361C13.5401 1.91533 14.3338 1.90964 15.1849 1.90796L16.2643 1.90669L24.6278 1.90504C25.603 1.9042 26.5777 1.86534 26.8769 3.11229C26.9679 3.49204 26.9245 3.93715 26.9247 4.32673L26.9278 6.15009L31.9275 6.14766C32.308 6.14872 32.6857 6.14362 33.0597 6.22697C34.796 6.61389 35.9924 8.05916 36.039 9.86729C36.0699 11.0681 35.0368 10.7572 34.1211 10.7581L23.7771 10.7591ZM18.0731 3.13081L15.6463 3.13119C15.2187 3.1314 14.7461 3.09276 14.3261 3.16115C14.2898 3.29989 14.2959 3.45418 14.2956 3.5972L14.2952 6.13544C14.4001 6.18207 14.6424 6.14817 14.7691 6.14796L21.9765 6.14615L25.6683 6.14186L25.6625 3.98733C25.6615 3.307 25.8196 3.1127 25.0615 3.1242L18.0731 3.13081Z" fill="black"/>
<path d="M15.9916 48.884L10.6757 48.887C10.0728 48.8906 9.48895 48.9134 9.36622 47.8769L6.49624 14.4243C6.34047 12.8548 5.98105 12.0952 7.36974 12.0947L23.6931 12.0951L31.8441 12.0942C32.6057 12.0945 33.3796 11.7524 33.2535 13.3458L30.3083 47.7672C30.2527 48.2894 30.1411 48.7142 29.7466 48.8421L29.714 48.8521C29.5576 48.9015 29.3884 48.8869 29.2288 48.8869L15.9916 48.884ZM25.923 18.8508C25.5679 18.9878 25.3475 19.4201 25.0991 19.7812L20.4691 26.5445C20.2625 26.8454 20.054 27.1932 19.8089 27.4288C19.6054 27.169 19.4259 26.8768 19.2377 26.5948L14.4758 19.6852C14.3184 19.4607 14.157 19.1937 13.9783 19.0072C13.4317 18.4369 12.6526 19.5063 13.1641 20.4201C13.3421 20.738 13.5554 21.0219 13.7549 21.3114L18.9025 28.8569L13.6341 36.4889C13.4289 36.7872 12.9612 37.3098 12.9811 37.7806C13.0062 38.3741 13.2913 38.6976 13.6743 38.7724C14.14 38.6591 14.4965 37.934 14.8107 37.4779L18.3695 32.3045C18.8462 31.6129 19.3597 30.9612 19.8004 30.2222L25.0933 37.8285C25.2635 38.0829 25.4246 38.3836 25.6208 38.5953C26.0781 39.0889 26.6923 38.4106 26.655 37.6396C26.6292 37.1047 25.8692 36.2846 25.6204 35.9229L20.7556 28.8152L25.8579 21.3542C26.068 21.0471 26.3064 20.7338 26.485 20.3885C26.8106 19.7592 26.5448 18.8101 25.9581 18.8479L25.923 18.8508Z" fill="black"/>
</g>
<defs>
<clipPath id="clip0_20_424">
<rect width="40" height="40" fill="white"/>
</clipPath>
</defs>
</svg>
