<svg width="40" height="40" viewBox="0 0 40 40" fill="none" xmlns="http://www.w3.org/2000/svg">
  <path  d="M20.1845 3.40848C20.001 3.35566 19.4998 3.40623 19.3053 3.42647C16.245 3.74491 13.7703 6.27598 13.531 9.324C13.4777 10.0029 13.5155 10.7101 13.5153 11.3914L13.5191 14.897L10.1953 14.8921L10.1963 9.7765C10.198 9.51533 10.188 9.24322 10.2359 8.98564L10.4387 7.91126C11.4836 3.52484 15.232 0.189027 19.8333 0.171753C20.6404 0.173393 21.4328 0.227289 22.2234 0.404914C26.5048 1.36682 29.7784 5.45701 29.7843 9.84322L29.7868 14.8874L26.4698 14.8978L26.4695 10.1633C26.4692 9.82939 26.4758 9.49611 26.4435 9.1633C26.1355 5.98154 23.3753 3.4563 20.1845 3.40848Z" fill="black"/>
  <path d="M15.5763 39.8441L10.2736 39.844C10.0174 39.8434 9.74674 39.8538 9.49228 39.8195C7.90791 39.6064 6.83225 38.4128 6.45879 36.9269C6.36711 36.562 6.40543 36.1235 6.40526 35.7488L6.40617 20.7525C6.40624 20.3712 6.39259 19.9842 6.42728 19.6042C6.60089 17.702 8.28143 16.4488 10.1057 16.4449L24.4749 16.4446L29.6206 16.4444C29.9418 16.4446 30.3273 16.4134 30.6403 16.4889C32.3353 16.8976 33.5961 18.2073 33.608 19.9818L33.6117 34.9398C33.6116 35.56 33.6638 36.2314 33.5583 36.8433C33.238 38.6998 31.7231 39.8432 29.8923 39.8438L15.5763 39.8441ZM19.7581 21.4928C16.2865 21.5371 13.6878 24.7863 13.7336 28.1635C13.7805 31.6278 16.7149 34.4063 20.1569 34.3393L20.2979 34.3351C20.6772 34.3104 21.0438 34.2725 21.4146 34.1838C26.434 32.9844 27.8901 26.3475 24.0126 23.0003C22.8763 22.0195 21.272 21.3931 19.7581 21.4928Z" fill="black"/>
  <path d="M20.3703 31.6507C19.9359 31.7467 19.4125 31.6742 19.1002 31.3362C18.7144 30.9185 18.7617 30.4851 18.7615 29.9561L18.7713 28.6948C18.7332 28.6219 18.5453 28.5423 18.4691 28.4853C16.7895 27.2294 17.6718 24.5609 19.6493 24.3041C19.8814 24.2878 20.1124 24.2855 20.3437 24.3138C22.6737 24.5993 23.1126 27.764 21.3675 28.5871C21.1819 28.6746 21.2375 28.7017 21.2386 28.9011L21.2406 30.0411C21.2396 30.2791 21.2741 30.5867 21.1861 30.8092L21.1276 30.9557C20.9704 31.2836 20.71 31.5258 20.3703 31.6507Z" fill="black"/>
</svg>
