<?xml version="1.0" encoding="utf-8" ?>
<svg xmlns="http://www.w3.org/2000/svg" xmlns:xlink="http://www.w3.org/1999/xlink" width="512" height="512">
	<path fill="#EDAA4E" d="M85.3052 432.67C82.5857 434.687 74.2769 438.711 70.9921 440.153C65.6233 438.36 54.2803 421.684 50.3557 416.723C47.0209 412.509 29.7154 392.799 29.455 388.286C29.2154 384.134 45.4471 373.154 49.2837 370.332L57.5156 364.055C61.0932 361.236 64.5959 358.103 67.7591 354.833C63.1988 346.543 59.3826 337.953 55.8974 329.159L52.5625 320.501C49.7089 313.023 51.0807 315.29 42.2966 315.32L31.5556 315.346C25.9989 315.355 20.0196 315.806 14.5 315.256C7.49729 314.558 9.26297 306.874 9.25519 301.488L9.24688 264.791C9.25195 258.486 6.591 249.084 13.7392 247.817C17.459 247.158 21.7983 247.515 25.5853 247.507L49.5054 247.536C50.1728 246.986 50.5961 244.957 50.8798 244.082L54.2564 234.11C58.1143 224.171 62.7645 214.999 67.7791 205.617C63.8141 202.34 59.4793 199.419 55.1711 196.613L34.276 183.172C25.1889 176.703 29.5288 175.201 35.5915 167.048L61.5065 133.289C66.0159 127.698 67.3839 122.819 74.856 127.785C77.9592 129.848 81.4958 132.376 84.1019 135.027L85.2602 136.327L85.3052 432.67Z"/>
	<path d="M479.945 120.095C491.734 119.342 502.769 128.769 503.419 140.798L503.648 446.597C503.661 459.408 502.491 460.93 496.64 472.837L488.183 490.465C487.103 492.905 487.778 495.321 487.337 497.896L487.272 498.25C486.989 499.856 486.181 500.784 484.987 501.853L483.474 502.302C476.682 504.016 476.892 497.114 475.88 492.923L475.774 492.5C474.826 488.603 472.507 484.622 470.875 480.955L463.151 462.379C459.9 453.685 461.242 448.897 461.243 439.621L461.25 153.646C461.251 148.075 460.902 142.253 461.34 136.705C462.087 127.264 470.893 120.611 479.945 120.095ZM472.345 459.125C475.933 465.489 479.557 472.611 481.748 479.581C482.248 479.038 482.502 478.014 482.78 477.325L484.63 472.814L490.645 459.339L477.929 459.121C476.214 459.105 474.012 458.844 472.345 459.125Z"/>
	<path fill="#171718" d="M472.166 193.502C470.876 190.328 471.216 180.864 471.235 177.001C473.327 176.435 476.306 176.763 478.466 176.76L494.486 176.835C494.525 180.136 495.32 189.849 493.244 192.626L493.05 192.828L477.703 193.271C476.284 193.288 473.412 192.94 472.166 193.502Z"/>
	<path fill="#626A6A" d="M480.362 131.058C481.615 131.006 482.919 130.894 484.159 131.114L484.5 131.18C493.841 132.84 493.173 143.152 493.19 150.5L493.333 169.251L485.059 169.237L472.034 168.952L472.072 147.711C472.058 139.881 470.341 132.951 480.362 131.058Z"/>
	<path fill="#03902A" d="M472.157 193.902C473.412 192.94 476.284 193.288 477.703 193.271L493.05 192.966L492.679 193.131C492.378 195.86 492.493 198.672 492.485 201.417L492.322 446.666L478.71 446.722C476.566 446.737 474.285 446.922 472.165 446.72L472.157 193.902Z"/>
	<path d="M85.2682 136.327L85.2241 71.1251C85.2159 68.6332 85.0027 65.9527 85.2859 63.4835C86.4614 53.232 96.069 45.1638 105.75 43.2504L106.587 43.1372C113.462 42.3687 120.58 42.7357 127.511 42.7455C127.492 32.8197 126.241 23.4219 133.91 15.815C147.048 2.78194 172.846 10.0689 173.827 29.8077C174.041 34.1306 174.457 38.2682 173.979 42.6082L190.441 42.6973C190.381 38.4569 189.914 33.7517 190.4 29.5685C193.454 3.29133 236.561 -0.470952 236.738 34.7424L236.55 42.6409L254.076 42.7257C257.201 42.7257 260.668 43.0223 263.754 42.629C263.738 33.6293 263.035 23.1055 269.921 16.172C279.896 6.12773 297.568 7.13524 305.921 18.7463C312.495 27.8839 308.16 38.6841 309.93 42.6102L354.346 42.7226C355.438 42.7215 357.178 42.9352 358.177 42.6023C358.024 32.0256 357.196 21.2298 366.729 14.0687C376.627 6.63406 391.848 7.97961 399.206 18.2852L399.706 19.0138C404.708 26.2783 404.063 34.1313 404.116 42.5012C410.147 42.7425 416.536 42.0053 422.5 42.8044C435.165 44.5013 444.685 55.7466 445.344 68.2475L445.496 462.103C445.495 469.107 445.818 476.317 444.694 483.25L444.069 486.008C439.335 503.355 424.521 504.483 410.072 504.487L131.341 504.493C115.952 504.496 100.005 507.827 89.9803 493L89.7373 492.645C86.1885 487.392 85.2874 481.619 85.2821 475.461L85.2996 432.67L85.2682 136.327ZM212.701 19.8448C208.955 20.3848 206.05 21.7629 203.625 24.6935L203.443 24.91C202.05 26.591 201.152 28.7446 200.749 30.875L200.677 31.2368C200.066 34.5273 200.613 39.3764 201.151 42.6493L214.675 42.7701L225.619 42.9018C225.938 38.6737 226.678 34.1143 225.854 29.9308L225.798 29.6235C224.641 23.504 218.935 19.1357 212.701 19.8448ZM149.432 19.8254C137.29 21.667 137.07 32.6473 138.165 42.6602L152.125 42.7371L162.55 42.7428C163.34 32.8926 164.395 18.8945 149.432 19.8254ZM285.685 20.3377C274.536 22.0435 273.467 33.5125 274.66 42.7321L288.827 42.7398L299.239 42.7415C299.591 36.5524 300.364 29.0816 296.03 24.0233C293.745 21.3565 289.217 19.6713 285.685 20.3377ZM380.441 20.3394C379.264 20.4512 378.09 20.5021 376.978 20.9333L376.714 21.033C367.467 24.6161 368.18 34.1404 369.008 42.3567C369.941 43.1184 379.564 42.7406 381.438 42.7374L393.228 42.7376C394.069 33.075 393.636 20.6948 381.005 20.3042L380.441 20.3394Z"/>
	<path fill="#DCDCDB" d="M288.129 59.5546C285.358 59.5619 273.179 58.9465 271.136 60.4802L270.209 61.2312C267.398 63.6407 266.092 67.9601 265.817 71.5427C263.853 97.1597 304.849 96.0275 309.007 62C309.349 59.2034 309.36 56.3215 309.46 53.5058L393.949 53.4852L393.735 58.9519C392.235 59.3978 390.045 59.1388 388.444 59.1753L378.045 59.5463C370.35 59.8115 364.252 59.2095 362.26 68.2413L362.158 68.7188C355.501 99.076 406.833 98.2145 403.765 53.7762L414.388 53.3926C422.933 53.3741 430.367 54.2276 433.935 63.3251L434.098 63.75C435.055 66.1728 435.142 70.1399 435.184 72.75L435.238 474.479C435.23 486.335 431.081 493.533 417.652 494.117L117.492 494.2C93.2901 494.086 95.4922 480.698 95.5086 463.189L95.5091 74.0776C95.514 71.1483 95.2565 67.6722 95.8936 64.8156C98.2264 54.3566 109.332 53.3858 118.102 53.3941L290.877 53.5479L299.597 54.099L299.246 59.436L288.129 59.5546Z"/>
	<path fill="white" d="M290.877 54.0866L299.597 54.099L299.246 59.436L288.129 59.5546L280.562 59.4051C285.223 59.003 290.7 60.0063 295.188 58.8368L294.542 58.4841L295.812 58.1875C296.324 57.9683 296.151 58.0634 296.59 57.802L297.5 57.375C296.797 57.2113 296.182 56.8914 295.453 56.8368L295.208 56.82C295.214 56.1304 294.914 55.8264 295.188 55.1875L295.625 55C295.785 54.886 296.125 54.4601 296.125 54.25L290.877 54.0866Z"/>
	<path fill="#171718" d="M211.479 59.5619C216.941 59.5429 223.006 59.0548 228.396 59.735C240.38 69.8134 231.117 85.8098 218.007 89.3543L215.939 89.625C199.981 91.2447 189.704 72.7087 198.908 62.7461C202.179 59.2052 207.084 59.6662 211.479 59.5619Z"/>
	<path fill="#171718" d="M147.766 59.2288L156.205 59.2337C158.79 59.2383 163.354 58.6902 165.62 60.0418C175.303 65.8191 168.872 85.7673 154.439 89.4155C133.59 94.1749 124.274 66.0606 139.184 59.9044C141.703 58.8644 145.058 59.2136 147.766 59.2288Z"/>
	<path d="M137.625 451.603L298.189 451.524C300.017 451.527 302.527 451.284 304.244 451.869L304.5 451.963C310.243 453.978 309.446 460.841 302.563 461.996L137 461.955C130.364 461.643 127.858 452.24 137.625 451.603Z"/>
	<path d="M158.397 253.348L397.699 253.342C403.85 253.592 405.794 261.949 399.076 263.562C396.804 264.108 393.615 263.736 391.241 263.73L376.125 263.742L141.252 263.728C139.077 263.726 136.361 263.995 134.279 263.341L134 263.247C128.903 261.581 131.029 254.574 135.666 253.614C138.178 253.095 141.184 253.372 143.759 253.366L158.397 253.348Z"/>
	<path d="M199.227 173.836L375.787 173.823C382.896 173.816 390.265 173.421 397.349 173.875C404.197 174.314 405.732 182.929 398.64 184.124C396.5 184.485 394.143 184.297 391.973 184.298L335.625 184.295L139.354 184.231C134.855 184.09 132.524 184.102 131.198 179.343C132.292 172.711 138.093 173.873 143.253 173.866L199.227 173.836Z"/>
	<path d="M393.891 412.001L395.25 411.828C404.063 411.961 407.012 421.989 396.5 422.428L140.188 422.513C126.236 422.683 130.199 412.539 136.517 412.116C139.376 411.925 142.326 412.068 145.193 412.068L393.891 412.001Z"/>
	<path d="M138.078 332.602L397.5 332.722C398.46 332.763 399.969 332.949 400.725 333.586L401.061 333.928C406.014 338.787 402.722 342.33 396.658 343.233L137.947 343.08C128.233 342.618 127.69 333.283 138.078 332.602Z"/>
	<path d="M136.156 293.594L396.435 293.529C404.631 293.628 405.316 302.242 398.944 303.728L137.646 303.962C129.511 303.586 128.884 294.201 136.156 293.594Z"/>
	<path d="M134.627 214.348L397.571 214.263C398.567 214.288 399.525 214.353 400.402 214.874L400.711 215.071C405.697 218.203 404.007 222.876 399.221 224.417C396.674 224.908 394.012 224.767 391.437 224.769L155.474 224.771C149.253 224.768 142.778 225.119 136.579 224.639C129.492 224.089 129.191 215.641 134.627 214.348Z"/>
	<path d="M136.211 372.574L393.301 372.627C395.16 372.625 398.077 372.262 399.789 372.948C405.911 375.402 404.138 381.307 398.674 382.933C395.85 383.494 392.756 383.247 389.895 383.249L138.142 383.234C129.169 383.04 127.823 373.769 136.211 372.574Z"/>
	<path d="M390.977 131.737C394.02 131.64 398.878 130.787 401.424 132.713C405.387 135.712 403.555 142.092 398.499 142.401C395.514 142.584 392.41 142.418 389.416 142.418L144.377 142.401C141.017 142.333 135.426 142.858 132.838 140.44C129.782 137.586 131.473 132.183 135.788 131.824C138.845 131.57 142.039 131.742 145.111 131.74L390.977 131.737Z"/>
</svg>
