<?xml version="1.0" encoding="utf-8" ?>
<svg xmlns="http://www.w3.org/2000/svg" xmlns:xlink="http://www.w3.org/1999/xlink" width="512" height="512">
	<path fill="#fff" d="M237.191 70.771L271.359 70.7472C281.744 70.7526 280.749 76.5665 280.753 84.2471L280.751 221.367C280.751 222.53 280.385 225.926 280.9 226.85L424.76 226.715C432.973 226.53 435.163 229.511 435.061 237.875L435.074 260.371C435.095 263.185 435.52 266.727 434.941 269.458L434.872 269.75C433.644 275.208 427.225 274.946 422.984 274.829L280.635 274.75L280.739 423.902C280.614 427.285 278.384 429.075 275.431 430.435C274.442 430.802 273.431 430.974 272.375 430.998L249.858 431.004C239.41 430.986 231.329 433.545 231.328 419.562L231.257 274.895C226.727 274.587 222.086 274.794 217.543 274.791L93.8257 274.77C90.9225 274.768 83.0186 275.725 80.695 273.96L79.125 272.731C75.4463 269.332 76.8107 264.503 76.8039 259.937L76.7316 238.479C76.5275 222.766 85.9505 226.732 98.0693 226.734L231.254 226.746L231.275 77.9439C231.455 74.2184 233.728 72.0489 237.191 70.771Z"/>
</svg>
