<svg width="40" height="40" viewBox="0 0 40 40" fill="none" xmlns="http://www.w3.org/2000/svg">
  <path d="M20.9946 20.757C17.4727 21.4643 14.3391 18.2641 13.3736 15.1562C13.1912 14.5694 13.3288 14.755 12.9502 14.3041C12.5455 13.8221 12.2571 12.6221 12.1019 12.0183C11.9136 11.2849 11.629 10.1352 12.541 9.74499L12.33 7.70004C12.0564 3.57004 14.9998 0.438095 19.0315 0.183044C21.1795 0.0422758 23.6915 0.637423 25.1034 2.35787C25.4248 2.74944 25.4322 2.84815 25.8914 3.05716C27.9505 3.99437 27.8872 7.5312 27.4355 9.42648C27.3447 9.80733 27.4316 9.60577 27.7 9.89663C28.1985 10.4367 28.0587 11.1481 27.9184 11.8011C27.7673 12.5036 27.5792 13.2662 27.259 13.9116C27.1408 14.1499 26.9059 14.326 26.8088 14.5607C26.6956 14.8341 26.6456 15.1422 26.5438 15.4226C25.6876 17.7808 23.5476 20.223 20.9946 20.757ZM24.0157 6.31146C23.4765 6.43716 22.9659 6.66972 22.4322 6.81927C20.9273 7.24099 19.1579 7.29015 17.6417 6.88641L16.3108 6.43723C15.5981 6.18866 15.1654 6.54955 14.7725 7.1748C14.33 7.87898 14.26 8.79093 14.2457 9.60265C14.2389 9.98679 14.3207 10.8801 13.6855 10.7766C13.5591 10.756 13.252 10.4608 13.1574 10.6128C13.0109 10.8481 13.1968 11.4694 13.2622 11.7216L13.5403 12.675C13.6098 12.8791 13.6866 13.1016 13.8036 13.2841C14.1439 13.8151 14.1205 13.4942 14.3294 14.2388L14.5694 14.9909C15.0177 16.1989 15.7783 17.2023 16.6691 18.116C20.2231 21.5766 24.1153 18.5094 25.5367 14.6216L25.749 13.9737C25.7951 13.8184 25.8334 13.6541 25.8986 13.5059C25.9941 13.289 26.1841 13.2366 26.2957 13.048C26.5306 12.6507 26.8551 11.2943 26.8516 10.8203C26.8465 10.1238 26.2134 11.0441 25.83 10.5491L25.8122 10.5266C25.7683 10.4698 25.756 10.4316 25.7476 10.3613L25.7427 10.3226C25.706 10.0139 25.7322 9.69476 25.7189 9.3839C25.6785 8.43562 25.3522 6.25147 24.0239 6.3112L24.0157 6.31146Z" fill="black"/>
  <path d="M14.7167 39.8441L2.79475 39.8435C1.87727 39.8396 2.10042 38.8396 2.10088 38.2282L2.10614 29.4515C2.1244 28.1287 2.75269 26.8644 3.79582 26.0478C4.37081 25.5977 5.09225 25.353 5.75921 25.0719L11.946 22.5681C12.9008 22.1573 13.1588 21.8312 13.8134 20.9948C13.9364 20.8376 14.0503 20.6612 14.1947 20.5228C14.6767 20.0611 15.9067 20.4294 14.9623 21.5448L14.5995 21.9692C14.1128 22.538 13.6131 23.1583 13.0112 23.6094L14.3732 26.8419C14.5564 27.2546 14.7795 28.1824 15.3773 28.0558C15.7926 27.9679 16.0198 27.382 16.1953 27.0505L17.9853 23.8452C18.1235 24.1962 18.2618 24.1926 18.6245 24.1671L21.5721 24.1782C21.7453 24.1844 21.9203 23.9732 22.0356 23.8632C22.8119 25.1026 23.4009 26.4955 24.175 27.6921C24.4204 28.0715 24.9149 28.2874 25.1628 27.8051L26.9018 23.788C27.0079 23.5397 26.8912 23.6073 26.6703 23.3887L25.1878 21.7455C24.7775 21.2649 24.2754 20.534 25.2296 20.2971C25.6786 20.2794 25.8535 20.5946 26.1034 20.9209L26.7075 21.678C27.0061 22.0274 27.2438 22.2073 27.6635 22.3981L34.8398 25.3218C37.0463 26.2429 37.8977 27.5315 37.901 30.0129L37.9031 38.8312C37.9031 38.9746 37.9138 39.1337 37.8827 39.274L37.8773 39.2969C37.8035 39.6402 37.5899 39.8349 37.2442 39.8431L22.5078 39.8441C22.3328 39.8441 22.1456 39.8598 21.9728 39.8369L20.9415 27.8711C20.9209 27.6343 20.8185 27.3061 20.9056 27.0865L21.2527 26.1327C21.3485 25.8126 21.5956 24.5551 21.442 24.2711L20.057 24.2562C19.5409 24.2562 18.9777 24.1713 18.5064 24.4177C18.3523 24.9615 18.8418 26.4694 19.0877 27.0996C19.1831 27.3444 19.0288 27.9733 18.9988 28.2512L17.9879 39.834C17.8991 39.8566 17.7903 39.8444 17.6975 39.8443L14.7167 39.8441ZM26.8313 31.3078L26.8228 32.588C26.8231 32.6667 26.8003 32.8858 26.8358 32.9476L31.785 32.9464L31.7766 31.3148L26.8313 31.3078Z" fill="black"/>
</svg>
