<?xml version="1.0" encoding="utf-8" ?>
<svg xmlns="http://www.w3.org/2000/svg" xmlns:xlink="http://www.w3.org/1999/xlink" width="512" height="512">
	<path fill="#ffffff" d="M81.1519 422.357L78.5829 419.918C72.2943 413.357 66.5774 405.891 61.2034 398.573C-2.89619 311.286 -2.20965 191.082 64.8262 105.192C109.644 47.769 180.298 12.6928 253.316 12.5337L268.731 12.6004C270.548 12.6474 272.317 12.9507 274.125 13.0905L295.631 15.6215C398.874 32.6264 481.632 115.168 495.834 219.875C504.321 282.453 489.235 345.852 452.207 397.327C446.191 405.69 440.069 413.54 432.585 420.651C430.82 423.276 428.531 425.389 426.287 427.595L415.611 437.436C370.436 476.432 314.374 495.9 255.203 495.863L237.442 495.517C231.679 495.145 225.71 494.426 220 493.501L200.949 490.182C159.514 480.848 117.268 458.783 86.9358 428.56C84.9687 426.6 82.741 424.638 81.1504 422.362L81.1519 422.357ZM203.925 287.809L203.774 297.875C203.62 303.664 203.404 309.877 201.452 315.375L195.357 325.425C186.188 329.967 176.539 332.718 166.955 336.172L113.479 357.679C105.668 361.149 97.8454 364.955 91.0666 370.219C80.3973 378.505 81.1398 386.324 81.1558 398.75L81.2014 415.397C81.2088 417.659 81.4023 420.117 81.1519 422.357L81.1504 422.362C82.741 424.638 84.9687 426.6 86.9358 428.56C117.268 458.783 159.514 480.848 200.949 490.182L220 493.501C225.71 494.426 231.679 495.145 237.442 495.517L255.203 495.863C314.374 495.9 370.436 476.432 415.611 437.436L426.287 427.595C428.531 425.389 430.82 423.276 432.585 420.651C432.156 418.091 432.35 415.315 432.356 412.72L432.402 397.427C432.414 393.009 432.799 388.254 431.577 384L430.817 381.608C424.727 364.774 387.976 352.227 371.961 345.968L331.18 330.98C326.47 329.19 322.174 326.822 317.624 324.711C317.503 324.671 317.583 324.709 317.45 324.511C315.279 321.277 312.743 318.513 310.212 315.565C309.144 312.604 307.765 291.99 307.582 288.853L307.405 287.816C302.289 289.336 291.708 315.802 260.307 316.655C242.355 317.143 226.861 312.548 214.249 299.501L207.559 292C206.429 290.66 205.481 289.266 204.199 288.062L203.925 287.809Z"/>
	<path fill="#424242" d="M184.992 94.4678C184.72 92.5444 184.941 90.8143 185.284 88.9126L199.579 91.3635C202.81 92.1462 203.285 92.0475 206.213 90.5146L216.307 84.6102C231.468 76.1913 250.953 72.9492 268.125 76.2937C286.954 79.961 300.068 90.5828 311.72 105.147C315.32 109.647 314.007 110.972 319.257 112.456C335.227 116.968 338.684 153.256 337.034 167.125C336.41 172.366 334.605 177.681 334.302 182.904C334.734 185.087 333.461 188.624 333.033 190.866L330.755 202.625C330.141 205.903 329.641 209.312 328.597 212.484C325.495 207.486 324.43 195.871 324.275 189.693L324.252 175.141C324.25 163.408 322.961 163.855 312.528 157.528C306.705 153.996 300.458 150.357 294.17 147.739C291.688 148.881 286.269 156.288 283.621 158.625C270.228 170.445 246.171 172.706 229.967 166.655C220.353 163.065 213.306 153.993 203 152.447L202.601 152.384C200.414 152.064 197.925 152.092 195.75 152.473L195.324 152.542C184.164 154.431 186.282 168.366 186.287 176.747L186.232 196.671C185.999 201.901 185.259 207.177 183.714 212.184L176.737 186.384C176.515 185.582 176.332 184.389 175.75 183.777L174.251 184.36C174.733 183.978 175.379 183.74 175.714 183.205C175.985 182.771 174.199 170.906 174.01 169.25L170.23 138.479C169.474 131.004 169.871 122.815 167.805 115.602C170.74 115.439 173.582 114.81 176.422 114.085C175.046 108.02 175.441 109.498 179.219 105.173C180.531 103.673 181.694 100.384 183.312 99.5657C184.613 98.3512 184.689 96.1503 184.992 94.4678Z"/>
	<path fill="#2398D7" d="M184.992 94.4678L192.801 97.2037C189.594 98.7222 186.846 99.2968 183.312 99.5657C184.613 98.3512 184.689 96.1503 184.992 94.4678Z"/>
	<path fill="#FFC884" d="M174.251 184.36L175.75 183.777C176.332 184.389 176.515 185.582 176.737 186.384L183.714 212.184C185.259 207.177 185.999 201.901 186.232 196.671L186.287 176.747C186.282 168.366 184.164 154.431 195.324 152.542L195.75 152.473C197.925 152.092 200.414 152.064 202.601 152.384L203 152.447C213.306 153.993 220.353 163.065 229.967 166.655C246.171 172.706 270.228 170.445 283.621 158.625C286.269 156.288 291.688 148.881 294.17 147.739C300.458 150.357 306.705 153.996 312.528 157.528C322.961 163.855 324.25 163.408 324.252 175.141L324.275 189.693C324.43 195.871 325.495 207.486 328.597 212.484C329.641 209.312 330.141 205.903 330.755 202.625L333.033 190.866C333.461 188.624 334.734 185.087 334.302 182.904L334.484 183.017C335.048 183.353 335.467 183.499 336.114 183.611C340.663 184.402 343.022 191.398 343.538 195.25L343.599 195.682C344.935 205.931 337.066 235.786 327.106 240.941C326.52 241.245 324.335 241.712 324.048 242.043C323.924 242.185 321.609 254.285 321.216 255.844C319.25 263.64 316.094 271.435 312.519 278.624L309.564 283.997C308.671 285.546 307.615 287.011 307.582 288.853L307.405 287.816C302.289 289.336 291.708 315.802 260.307 316.655C242.355 317.143 226.861 312.548 214.249 299.501L207.559 292C206.429 290.66 205.481 289.266 204.199 288.062L203.925 287.809L203.887 287.784C197.022 273.861 189.616 257.969 187.79 242.378C183.956 242.859 181.468 238.507 179.616 235.808C172.194 224.991 159.854 194.208 174.251 184.36Z"/>
	<path fill="#424242" d="M203.925 287.809L204.199 288.062C205.481 289.266 206.429 290.66 207.559 292L214.249 299.501C226.861 312.548 242.355 317.143 260.307 316.655C291.708 315.802 302.289 289.336 307.405 287.816L307.582 288.853C307.765 291.99 309.144 312.604 310.212 315.565C312.743 318.513 315.279 321.277 317.45 324.511C317.583 324.709 317.503 324.671 317.624 324.711C322.174 326.822 326.47 329.19 331.18 330.98L371.961 345.968C387.976 352.227 424.727 364.774 430.817 381.608L431.577 384C432.799 388.254 432.414 393.009 432.402 397.427L432.356 412.72C432.35 415.315 432.156 418.091 432.585 420.651C430.82 423.276 428.531 425.389 426.287 427.595L415.611 437.436C370.436 476.432 314.374 495.9 255.203 495.863L237.442 495.517C231.679 495.145 225.71 494.426 220 493.501L200.949 490.182C159.514 480.848 117.268 458.783 86.9358 428.56C84.9687 426.6 82.741 424.638 81.1504 422.362L81.1519 422.357C81.4023 420.117 81.2088 417.659 81.2014 415.397L81.1558 398.75C81.1398 386.324 80.3973 378.505 91.0666 370.219C97.8454 364.955 105.668 361.149 113.479 357.679L166.955 336.172C176.539 332.718 186.188 329.967 195.357 325.425L201.452 315.375C203.404 309.877 203.62 303.664 203.774 297.875L203.925 287.809ZM258.074 371.428C265.459 376.234 273.905 381.49 278.09 389.514L277.873 389.684C275.467 391.623 273.856 394.679 272.12 397.205L266.771 404.491C272.282 411.301 276.859 424.437 275.877 433.54L275.471 436.268L309.751 360.049C313.763 350.257 320.425 335.604 317.624 324.711C317.503 324.671 317.583 324.709 317.45 324.511C315.279 321.277 312.743 318.513 310.212 315.565C304.851 327.159 296.155 336.401 287.456 345.581C281.623 351.737 266.064 368.396 258.074 371.428ZM195.379 325.425C194.35 341.595 203.113 357.977 209.408 372.347L236.365 433.818C236.699 431.683 236.369 429.359 236.668 427.162C237.708 419.524 241.524 410.604 245.825 404.36L234.328 388.404C236.906 382.728 248.525 375.27 253.327 371.194L253.49 371.054C244.394 364.28 235.764 356.962 227.791 348.875L213.752 333.348C209.26 328.222 203.054 322.135 201.452 315.375L195.379 325.425Z"/>
	<path fill="#E54848" d="M253.49 371.054C255.022 371.006 256.657 371.519 258.074 371.428C265.459 376.234 273.905 381.49 278.09 389.514L277.873 389.684C275.467 391.623 273.856 394.679 272.12 397.205L266.771 404.491C272.282 411.301 276.859 424.437 275.877 433.54L275.471 436.268L257.287 481.797L250.826 467.106C245.62 456.286 239.695 445.393 236.365 433.818C236.699 431.683 236.369 429.359 236.668 427.162C237.708 419.524 241.524 410.604 245.825 404.36L234.328 388.404C236.906 382.728 248.525 375.27 253.327 371.194L253.49 371.054Z"/>
	<path fill="#F2AB6A" d="M203.925 287.809L204.199 288.062C205.481 289.266 206.429 290.66 207.559 292L214.249 299.501C226.861 312.548 242.355 317.143 260.307 316.655C291.708 315.802 302.289 289.336 307.405 287.816L307.582 288.853C307.765 291.99 309.144 312.604 310.212 315.565C304.851 327.159 296.155 336.401 287.456 345.581C281.623 351.737 266.064 368.396 258.074 371.428C256.657 371.519 255.022 371.006 253.49 371.054C244.394 364.28 235.764 356.962 227.791 348.875L213.752 333.348C209.26 328.222 203.054 322.135 201.452 315.375C203.404 309.877 203.62 303.664 203.774 297.875L203.925 287.809Z"/>
</svg>
